<svg width="26" height="28" viewBox="0 0 26 28" fill="none" xmlns="http://www.w3.org/2000/svg">
<path d="M12.0001 4.16663C7.80758 4.16663 4.41675 7.55746 4.41675 11.75C4.41675 17.4375 12.0001 25.8333 12.0001 25.8333C12.0001 25.8333 19.5834 17.4375 19.5834 11.75C19.5834 7.55746 16.1926 4.16663 12.0001 4.16663ZM12.0001 14.4583C11.2818 14.4583 10.5929 14.173 10.085 13.665C9.57709 13.1571 9.29175 12.4683 9.29175 11.75C9.29175 11.0317 9.57709 10.3428 10.085 9.83488C10.5929 9.32697 11.2818 9.04163 12.0001 9.04163C12.7184 9.04163 13.4073 9.32697 13.9152 9.83488C14.4231 10.3428 14.7084 11.0317 14.7084 11.75C14.7084 12.4683 14.4231 13.1571 13.9152 13.665C13.4073 14.173 12.7184 14.4583 12.0001 14.4583Z" fill="#FEBE97"/>
</svg>
