<svg width="27" height="30" viewBox="0 0 27 30" fill="none" xmlns="http://www.w3.org/2000/svg">
<path d="M8.673 7C8.85865 7 9.0367 7.07375 9.16797 7.20503C9.29925 7.3363 9.373 7.51435 9.373 7.7V9.009H16.89V7.709C16.89 7.52335 16.9637 7.3453 17.095 7.21403C17.2263 7.08275 17.4043 7.009 17.59 7.009C17.7757 7.009 17.9537 7.08275 18.085 7.21403C18.2162 7.3453 18.29 7.52335 18.29 7.709V9.009H21C21.5303 9.009 22.0388 9.21958 22.4139 9.59443C22.7889 9.96929 22.9997 10.4777 23 11.008V25.001C22.9997 25.5313 22.7889 26.0397 22.4139 26.4146C22.0388 26.7894 21.5303 27 21 27H5C4.46974 27 3.96118 26.7894 3.58614 26.4146C3.2111 26.0397 3.00027 25.5313 3 25.001V11.008C3.00027 10.4777 3.2111 9.96929 3.58614 9.59443C3.96118 9.21958 4.46974 9.009 5 9.009H7.973V7.699C7.97327 7.51352 8.04713 7.33573 8.17838 7.20467C8.30963 7.07361 8.48752 7 8.673 7ZM4.4 14.742V25.001C4.4 25.0798 4.41552 25.1578 4.44567 25.2306C4.47583 25.3034 4.52002 25.3695 4.57574 25.4253C4.63145 25.481 4.69759 25.5252 4.77039 25.5553C4.84319 25.5855 4.92121 25.601 5 25.601H21C21.0788 25.601 21.1568 25.5855 21.2296 25.5553C21.3024 25.5252 21.3685 25.481 21.4243 25.4253C21.48 25.3695 21.5242 25.3034 21.5543 25.2306C21.5845 25.1578 21.6 25.0798 21.6 25.001V14.756L4.4 14.742ZM9.667 21.619V23.285H8V21.619H9.667ZM13.833 21.619V23.285H12.167V21.619H13.833ZM18 21.619V23.285H16.333V21.619H18ZM9.667 17.642V19.308H8V17.642H9.667ZM13.833 17.642V19.308H12.167V17.642H13.833ZM18 17.642V19.308H16.333V17.642H18ZM7.973 10.408H5C4.92121 10.408 4.84319 10.4235 4.77039 10.4537C4.69759 10.4838 4.63145 10.528 4.57574 10.5837C4.52002 10.6395 4.47583 10.7056 4.44567 10.7784C4.41552 10.8512 4.4 10.9292 4.4 11.008V13.343L21.6 13.357V11.008C21.6 10.9292 21.5845 10.8512 21.5543 10.7784C21.5242 10.7056 21.48 10.6395 21.4243 10.5837C21.3685 10.528 21.3024 10.4838 21.2296 10.4537C21.1568 10.4235 21.0788 10.408 21 10.408H18.29V11.337C18.29 11.5227 18.2162 11.7007 18.085 11.832C17.9537 11.9633 17.7757 12.037 17.59 12.037C17.4043 12.037 17.2263 11.9633 17.095 11.832C16.9637 11.7007 16.89 11.5227 16.89 11.337V10.408H9.373V11.328C9.373 11.5137 9.29925 11.6917 9.16797 11.823C9.0367 11.9543 8.85865 12.028 8.673 12.028C8.48735 12.028 8.3093 11.9543 8.17803 11.823C8.04675 11.6917 7.973 11.5137 7.973 11.328V10.408Z" fill="#FEBE97"/>
</svg>
