<svg width="26" height="32" viewBox="0 0 26 32" fill="none" xmlns="http://www.w3.org/2000/svg">
<path d="M21.3454 10.2491H2.65455C2.47834 10.2494 2.30943 10.3196 2.18485 10.4442C2.06027 10.5688 1.9902 10.7378 1.98999 10.914V12.2514C1.98999 12.313 2.05681 12.3837 2.11141 12.4123L11.9358 18.0239C11.9609 18.0383 11.9895 18.0458 12.0185 18.0455C12.0481 18.0456 12.0772 18.0377 12.1027 18.0226L21.6301 12.4178C21.6837 12.3879 21.8257 12.3089 21.879 12.2725C21.9434 12.2285 22.01 12.1887 22.01 12.11V10.9137C22.0097 10.7375 21.9396 10.5687 21.815 10.4441C21.6905 10.3195 21.5216 10.2494 21.3454 10.2491ZM21.9271 14.268C21.9015 14.2533 21.8725 14.2456 21.8431 14.2458C21.8136 14.246 21.7847 14.254 21.7594 14.269L16.3677 17.4413C16.3462 17.4538 16.3279 17.471 16.3139 17.4916C16.3 17.5122 16.2909 17.5356 16.2873 17.5602C16.2836 17.5848 16.2856 17.6099 16.293 17.6337C16.3004 17.6574 16.3131 17.6792 16.33 17.6974L21.7224 23.5102C21.7379 23.527 21.7566 23.5404 21.7775 23.5495C21.7984 23.5587 21.821 23.5633 21.8439 23.5632C21.8879 23.5632 21.9301 23.5456 21.9613 23.5145C21.9924 23.4833 22.0099 23.4411 22.01 23.3971V14.4123C22.0101 14.383 22.0024 14.3543 21.9879 14.329C21.9733 14.3037 21.9523 14.2826 21.9271 14.268ZM14.814 18.5065C14.7884 18.4786 14.754 18.4604 14.7166 18.4548C14.6791 18.4492 14.6409 18.4566 14.6083 18.4758L12.4472 19.7475C12.3206 19.8207 12.1771 19.8597 12.0309 19.8607C11.8846 19.8616 11.7407 19.8245 11.6131 19.7529L9.71121 18.6664C9.68051 18.6489 9.64503 18.6416 9.60993 18.6457C9.57482 18.6497 9.54191 18.6648 9.51595 18.6887L2.29367 25.3879C2.27474 25.4056 2.2602 25.4275 2.25122 25.4518C2.24224 25.4761 2.23906 25.5022 2.24194 25.5279C2.24482 25.5537 2.25367 25.5784 2.2678 25.6002C2.28193 25.6219 2.30094 25.64 2.32331 25.6531C2.43563 25.7191 2.54405 25.7506 2.65429 25.7506H21.1541C21.1864 25.7505 21.218 25.741 21.245 25.7232C21.272 25.7054 21.2933 25.6802 21.3062 25.6505C21.319 25.6209 21.3229 25.5882 21.3174 25.5564C21.312 25.5246 21.2974 25.495 21.2755 25.4714L14.814 18.5065ZM7.92683 17.8963C7.94591 17.8786 7.96057 17.8566 7.96962 17.8322C7.97868 17.8078 7.98188 17.7816 7.97897 17.7557C7.97606 17.7299 7.96712 17.705 7.95288 17.6832C7.93863 17.6615 7.91947 17.6433 7.89693 17.6303L2.23777 14.398C2.21252 14.3836 2.18394 14.3762 2.1549 14.3763C2.12585 14.3765 2.09737 14.3843 2.07228 14.3989C2.0472 14.4136 2.02639 14.4345 2.01195 14.4597C1.99751 14.4849 1.98994 14.5135 1.98999 14.5425V23.0237C1.98981 23.0561 1.99913 23.0879 2.0168 23.115C2.03447 23.1421 2.05971 23.1635 2.0894 23.1765C2.11909 23.1894 2.15192 23.1934 2.18384 23.1879C2.21576 23.1823 2.24536 23.1676 2.26897 23.1454L7.92683 17.8963Z" fill="#FEBE97"/>
</svg>
