<svg width="26" height="28" viewBox="0 0 26 28" fill="none" xmlns="http://www.w3.org/2000/svg">
<path fill-rule="evenodd" clip-rule="evenodd" d="M16.9313 25.9775C15.3713 25.92 10.9502 25.3091 6.32 20.68C1.69092 16.0498 1.081 11.6298 1.0225 10.0687C0.935835 7.68972 2.758 5.37897 4.86292 4.47655C5.11639 4.3671 5.39397 4.32543 5.66841 4.35562C5.94285 4.38582 6.20472 4.48685 6.42833 4.6488C8.16167 5.91197 9.35767 7.82297 10.3847 9.32555C10.6106 9.65567 10.7072 10.0574 10.6561 10.4542C10.605 10.8509 10.4096 11.215 10.1073 11.4771L7.99375 13.0468C7.89164 13.1205 7.81976 13.2288 7.79147 13.3516C7.76317 13.4743 7.78039 13.6031 7.83992 13.7141C8.31875 14.5841 9.17025 15.8797 10.1453 16.8547C11.1203 17.8297 12.4777 18.7376 13.4083 19.2706C13.5249 19.336 13.6623 19.3544 13.792 19.3217C13.9218 19.2891 14.0341 19.208 14.1059 19.0951L15.4818 17.001C15.7347 16.665 16.1078 16.4399 16.523 16.3728C16.9382 16.3058 17.3632 16.402 17.7091 16.6413C19.2333 17.6965 21.0122 18.8719 22.3143 20.5391C22.4894 20.7644 22.6008 21.0325 22.6368 21.3155C22.6728 21.5985 22.6322 21.886 22.5191 22.1479C21.6123 24.2636 19.3178 26.0652 16.9313 25.9775Z" fill="#FEBE97"/>
</svg>
